<svg width="0" height="0" class="hidden">
  <symbol xmlns="http://www.w3.org/2000/svg" viewBox="0 0 516.338 516.339" id="facebook-logo">
    <path d="M497.446 0H18.893C8.458 0 .006 8.458.006 18.893v478.554c0 10.435 8.458 18.893 18.886 18.893h93.869V316.135c0-6.763-5.484-12.24-12.24-12.24H81.169c-6.756 0-12.24-5.477-12.24-12.239v-48.74c0-6.762 5.483-12.24 12.24-12.24h19.352c6.756 0 12.24-5.478 12.24-12.24v-31.842c0-31.279 7.387-54.958 22.172-71.028 14.78-16.078 39.101-24.113 72.963-24.113h46.279c6.762 0 12.24 5.478 12.24 12.24v48.74c0 6.763-5.478 12.24-12.24 12.24h-24.37c-6.702 0-12.075.557-16.114 1.677-4.039 1.12-6.964 3.139-8.764 6.059-1.805 2.925-2.968 5.888-3.482 8.893-.514 3.011-.771 7.264-.771 12.766v24.37c0 6.763 5.483 12.24 12.24 12.24h41.781c6.756 0 11.665 5.447 10.955 12.173l-5.165 48.875c-.71 6.72-6.763 12.172-13.525 12.172h-34.045c-6.757 0-12.24 5.478-12.24 12.24v200.204h296.771c10.435 0 18.887-8.458 18.887-18.893V18.893C516.333 8.458 507.88 0 497.446 0z"></path>
  </symbol>
  <symbol xmlns="http://www.w3.org/2000/svg" viewBox="0 0 97.75 97.75" id="instagram-social-network-logo-of-photo-camera">
    <ellipse cx="48.944" cy="48.719" rx="14.465" ry="14.017"></ellipse>
    <path d="M71.333 49.501c0 11.981-10.024 21.692-22.389 21.692s-22.389-9.711-22.389-21.692c0-2.147.324-4.221.924-6.18h-6.616v30.427a2.87 2.87 0 0 0 2.863 2.863h50.159a2.871 2.871 0 0 0 2.865-2.863V43.321h-6.341c.599 1.959.924 4.033.924 6.18zM65.332 35.11h8.141a3.25 3.25 0 0 0 3.242-3.242v-7.762a3.25 3.25 0 0 0-3.242-3.243h-8.141a3.25 3.25 0 0 0-3.243 3.243v7.762a3.25 3.25 0 0 0 3.243 3.242z"></path>
    <path d="M48.875 0C21.882 0 0 21.882 0 48.875S21.882 97.75 48.875 97.75 97.75 75.868 97.75 48.875 75.868 0 48.875 0zm26.77 84.891H22.106c-5.087 0-9.246-3.765-9.246-9.244V22.105c0-5.481 4.159-9.245 9.246-9.245h53.539c5.086 0 9.246 3.764 9.246 9.245v53.542c0 5.479-4.161 9.244-9.246 9.244z"></path>
  </symbol>
  <symbol xmlns="http://www.w3.org/2000/svg" viewBox="0 0 97.75 97.75" id="twitter-social-logotype">
    <path d="M48.875 0C21.882 0 0 21.882 0 48.875S21.882 97.75 48.875 97.75 97.75 75.868 97.75 48.875 75.868 0 48.875 0zM78.43 35.841c.023.577.035 1.155.035 1.736 0 20.878-15.887 42.473-42.473 42.473a42.306 42.306 0 0 1-22.883-6.708.36.36 0 0 1-.145-.427.365.365 0 0 1 .383-.237c1.148.137 2.322.205 3.487.205 6.323 0 12.309-1.955 17.372-5.664a15.157 15.157 0 0 1-13.161-10.478.364.364 0 0 1 .073-.351.365.365 0 0 1 .339-.115 14.55 14.55 0 0 0 5.04.072c-6.259-1.945-10.658-7.808-10.658-14.483l.002-.194a.362.362 0 0 1 .537-.309 14.493 14.493 0 0 0 5.291 1.711A15.144 15.144 0 0 1 15.96 31.21c0-2.682.71-5.318 2.054-7.623a.36.36 0 0 1 .284-.178.354.354 0 0 1 .309.132c7.362 9.03 18.191 14.59 29.771 15.305a15.344 15.344 0 0 1-.291-2.985c0-8.361 6.802-15.162 15.162-15.162 4.11 0 8.082 1.689 10.929 4.641a29.23 29.23 0 0 0 9.09-3.508.363.363 0 0 1 .41.028c.116.094.164.25.118.394a15.14 15.14 0 0 1-5.33 7.489 29.15 29.15 0 0 0 6.831-2.072.361.361 0 0 1 .447.533 30.22 30.22 0 0 1-7.314 7.637z"></path>
  </symbol>
</svg>